<?xml version="1.0" encoding="utf-8"?>
<svg id="svg4399" viewBox="0 0 200 200" version="1.0" xmlns="http://www.w3.org/2000/svg" xmlns:xlink="http://www.w3.org/1999/xlink">
  <defs id="defs4401">
    <linearGradient id="linearGradient4340">
      <stop id="stop4342" style="stop-color:#d7e3f4" offset="0"/>
      <stop id="stop4344" style="stop-color:#214478" offset="1"/>
    </linearGradient>
    <filter id="filter3107" height="1.0482" width="1.3434" y="-.024091" x="-.17169">
      <feGaussianBlur id="feGaussianBlur3109" stdDeviation="4.6240982"/>
    </filter>
    <filter id="filter3027" height="1.1012" width="1.7211" y="-.050592" x="-.36055">
      <feGaussianBlur id="feGaussianBlur3029" stdDeviation="9.7106061"/>
    </filter>
    <filter id="filter4336" height="1.4405" width="1.5743" y="-.22027" x="-.28714">
      <feGaussianBlur id="feGaussianBlur4338" stdDeviation="16.591587"/>
    </filter>
    <linearGradient id="linearGradient4452" y2="708.43" gradientUnits="userSpaceOnUse" x2="215.16" gradientTransform="translate(189.2)" y1="708.43" x1="150.52">
      <stop id="stop3456" style="stop-color:#ff6600" offset="0"/>
      <stop id="stop2366" style="stop-color:#e3dbdb" offset="0.3284"/>
      <stop id="stop2368" style="stop-color:#e3dbdb" offset="0.6621"/>
      <stop id="stop3458" style="stop-color:#ff6600;stop-opacity:.99984" offset="1"/>
    </linearGradient>
    <filter id="filter3808" height="1.7606" width="1.7606" y="-.38028" x="-.38028">
      <feGaussianBlur id="feGaussianBlur3810" stdDeviation="1.3100255"/>
    </filter>
    <radialGradient id="radialGradient2540" gradientUnits="userSpaceOnUse" cy="474.26" cx="426.36" gradientTransform="matrix(.38920 .43883 -.59871 .53099 579.4 -443.21)" r="57.671" xlink:href="#linearGradient4340"/>
    <radialGradient id="radialGradient2543" gradientUnits="userSpaceOnUse" cy="343" cx="444.12" gradientTransform="matrix(.33914 .36421 -.49474 .46070 502.58 -376.34)" r="126.08" xlink:href="#linearGradient4340"/>
    <radialGradient id="radialGradient2549" gradientUnits="userSpaceOnUse" cy="-16.146" cx="464.85" gradientTransform="matrix(1 0 0 .82638 0 -2.8033)" r="23.414" xlink:href="#linearGradient4340"/>
  </defs>
  <g id="layer1" transform="translate(-370 111.92)">
    <path id="use2984" style="color:#000000;filter:url(#filter3808);fill:#ffffbe" d="m18.11 77.362a4.1339 4.1339 0 1 1 -8.2675 0 4.1339 4.1339 0 1 1 8.2675 0z" transform="matrix(.35324 0 0 .35324 767.97 1764.6)"/>
    <path id="use2986" style="color:#000000;filter:url(#filter3808);fill:#ffffbe" d="m18.11 77.362a4.1339 4.1339 0 1 1 -8.2675 0 4.1339 4.1339 0 1 1 8.2675 0z" transform="matrix(.35324 0 0 .35324 1624.6 6883)"/>
    <path id="use2988" style="color:#000000;filter:url(#filter3808);fill:#ffffbe" d="m18.11 77.362a4.1339 4.1339 0 1 1 -8.2675 0 4.1339 4.1339 0 1 1 8.2675 0z" transform="matrix(.35324 0 0 .35324 3764.1 19751)"/>
    <path id="use2990" style="color:#000000;filter:url(#filter3808);fill:#ffffbe" d="m18.11 77.362a4.1339 4.1339 0 1 1 -8.2675 0 4.1339 4.1339 0 1 1 8.2675 0z" transform="matrix(.35324 0 0 .35324 8259.2 46709)"/>
    <path id="use2992" style="color:#000000;filter:url(#filter3808);fill:#ffffbe" d="m18.11 77.362a4.1339 4.1339 0 1 1 -8.2675 0 4.1339 4.1339 0 1 1 8.2675 0z" transform="matrix(.35324 0 0 .35324 16591 96695)"/>
    <path id="use2994" style="color:#000000;filter:url(#filter3808);fill:#ffffbe" d="m18.11 77.362a4.1339 4.1339 0 1 1 -8.2675 0 4.1339 4.1339 0 1 1 8.2675 0z" transform="matrix(.35324 0 0 .35324 30744 1.8161e5)"/>
    <path id="use2996" style="color:#000000;filter:url(#filter3808);fill:#ffffbe" d="m18.11 77.362a4.1339 4.1339 0 1 1 -8.2675 0 4.1339 4.1339 0 1 1 8.2675 0z" transform="matrix(.35324 0 0 .35324 53250 3.1665e5)"/>
    <path id="use3004" style="color:#000000;filter:url(#filter3808);fill:#ffffbe" d="m18.11 77.362a4.1339 4.1339 0 1 1 -8.2675 0 4.1339 4.1339 0 1 1 8.2675 0z" transform="matrix(.35324 0 0 .35324 774.95 1765.8)"/>
    <path id="use3006" style="color:#000000;filter:url(#filter3808);fill:#ffffbe" d="m18.11 77.362a4.1339 4.1339 0 1 1 -8.2675 0 4.1339 4.1339 0 1 1 8.2675 0z" transform="matrix(.35324 0 0 .35324 1629.1 6885.4)"/>
    <path id="use3008" style="color:#000000;filter:url(#filter3808);fill:#ffffbe" d="m18.11 77.362a4.1339 4.1339 0 1 1 -8.2675 0 4.1339 4.1339 0 1 1 8.2675 0z" transform="matrix(.35324 0 0 .35324 3774 19755)"/>
    <path id="use3010" style="color:#000000;filter:url(#filter3808);fill:#ffffbe" d="m18.11 77.362a4.1339 4.1339 0 1 1 -8.2675 0 4.1339 4.1339 0 1 1 8.2675 0z" transform="matrix(.35324 0 0 .35324 8267.3 46711)"/>
    <path id="use3012" style="color:#000000;filter:url(#filter3808);fill:#ffffbe" d="m18.11 77.362a4.1339 4.1339 0 1 1 -8.2675 0 4.1339 4.1339 0 1 1 8.2675 0z" transform="matrix(.35324 0 0 .35324 16597 96696)"/>
    <path id="use3014" style="color:#000000;filter:url(#filter3808);fill:#ffffbe" d="m18.11 77.362a4.1339 4.1339 0 1 1 -8.2675 0 4.1339 4.1339 0 1 1 8.2675 0z" transform="matrix(.35324 0 0 .35324 30755 1.8161e5)"/>
    <path id="use3016" style="color:#000000;filter:url(#filter3808);fill:#ffffbe" d="m18.11 77.362a4.1339 4.1339 0 1 1 -8.2675 0 4.1339 4.1339 0 1 1 8.2675 0z" transform="matrix(.35324 0 0 .35324 53256 3.1665e5)"/>
    <path id="use3024" style="color:#000000;filter:url(#filter3808);fill:#ffffbe" d="m18.11 77.362a4.1339 4.1339 0 1 1 -8.2675 0 4.1339 4.1339 0 1 1 8.2675 0z" transform="matrix(.35324 0 0 .35324 867.22 1783.5)"/>
    <path id="use3026" style="color:#000000;filter:url(#filter3808);fill:#ffffbe" d="m18.11 77.362a4.1339 4.1339 0 1 1 -8.2675 0 4.1339 4.1339 0 1 1 8.2675 0z" transform="matrix(.35324 0 0 .35324 1726.6 6902.1)"/>
    <path id="use3028" style="color:#000000;filter:url(#filter3808);fill:#ffffbe" d="m18.11 77.362a4.1339 4.1339 0 1 1 -8.2675 0 4.1339 4.1339 0 1 1 8.2675 0z" transform="matrix(.35324 0 0 .35324 3869.8 19768)"/>
    <path id="use3030" style="color:#000000;filter:url(#filter3808);fill:#ffffbe" d="m18.11 77.362a4.1339 4.1339 0 1 1 -8.2675 0 4.1339 4.1339 0 1 1 8.2675 0z" transform="matrix(.35324 0 0 .35324 8363.6 46723)"/>
    <path id="use3032" style="color:#000000;filter:url(#filter3808);fill:#ffffbe" d="m18.11 77.362a4.1339 4.1339 0 1 1 -8.2675 0 4.1339 4.1339 0 1 1 8.2675 0z" transform="matrix(.35324 0 0 .35324 16689 96710)"/>
    <path id="use3034" style="color:#000000;filter:url(#filter3808);fill:#ffffbe" d="m18.11 77.362a4.1339 4.1339 0 1 1 -8.2675 0 4.1339 4.1339 0 1 1 8.2675 0z" transform="matrix(.35324 0 0 .35324 30847 1.8162e5)"/>
    <path id="use3036" style="color:#000000;filter:url(#filter3808);fill:#ffffbe" d="m18.11 77.362a4.1339 4.1339 0 1 1 -8.2675 0 4.1339 4.1339 0 1 1 8.2675 0z" transform="matrix(.35324 0 0 .35324 53354 3.1667e5)"/>
    <path id="path4371" style="color:#000000;filter:url(#filter4336);fill:#ffeeaa" d="m455.81 396.56c-28.85 0.11-57.62 11.3-79.53 33.38s-32.89 50.93-32.78 79.78c14.67-0.06 29.33-2.99 43.06-8.75-13.65 23.64-18.85 50.45-15.97 76.37 31.91-3.55 62.42-19.36 84.03-46.4 21.62-27.04 30.34-60.28 26.79-92.19-13.31 1.48-26.36 5.11-38.63 10.78 8.74-16.52 13.1-34.74 13.03-52.97z" transform="matrix(.36838 .039410 -.039410 .36838 333.27 -199.06)"/>
    <path id="path4373" style="color:#000000;stroke:#6592d5;stroke-width:.99868;fill:url(#radialGradient2549)" d="m487.77-34.775c-10.64-1.097-21.67 1.892-30.62 9.161-8.94 7.27-14.12 17.466-15.21 28.097 10.63 1.097 21.67-1.8917 30.61-9.1615 8.94-7.2695 14.12-17.466 15.22-28.096z"/>
    <path id="path4375" style="color:#000000;filter:url(#filter3027);fill:#ffe680" d="m339.73 478.1h64.64l-32.32 460.66-32.32-460.66z" transform="matrix(.26311 .26083 -.26083 .26311 528.41 -267.53)"/>
    <path id="path4377" style="color:#000000;filter:url(#filter3107);fill:url(#linearGradient4452)" d="m339.73 478.1h64.64l-32.32 460.66-32.32-460.66z" transform="matrix(.26311 .26083 -.26083 .26311 528.41 -267.53)"/>
    <path id="path4379" style="stroke:#6592d5;stroke-width:1.1115;fill:url(#radialGradient2543)" d="m556.71-98.496c-23.26 2.708-47.44 14.354-67.08 34.165s-43.23 57.803-33.58 67.37c11.46 11.365 47.43-14.354 67.07-34.165s31.08-44.095 33.59-67.37z"/>
    <path id="path4381" style="color:#000000;stroke:#6592d5;stroke-width:1.1115;fill:url(#radialGradient2540)" d="m493.32-18.458c-11.89 0.052-23.75 4.673-32.78 13.781-9.03 9.1083-13.55 21.006-13.5 32.901 11.9-0.051 23.76-4.672 32.79-13.78 9.02-9.1086 13.54-21.007 13.49-32.902z"/>
    <g id="g4383" transform="matrix(.17990 .15704 -.15704 .17990 500.37 -162.02)">
      <rect id="rect4385" style="color:#000000;stroke:#6592d5;stroke-width:2.871;fill:#fff6d5" rx="4.6589" ry="4.6589" height="19.109" width="19.109" y="209.81" x="362.49"/>
      <rect id="use4387" style="color:#000000;stroke:#6592d5;stroke-width:2.871;fill:#fff6d5" rx="4.6589" ry="4.6589" height="19.109" width="19.109" y="238.45" x="362.49"/>
      <rect id="use4389" style="color:#000000;stroke:#6592d5;stroke-width:2.871;fill:#fff6d5" rx="4.6589" ry="4.6589" height="19.109" width="19.109" y="267.1" x="362.49"/>
      <rect id="use4391" style="color:#000000;stroke:#6592d5;stroke-width:2.871;fill:#fff6d5" rx="4.6589" ry="4.6589" height="19.109" width="19.109" y="295.75" x="362.49"/>
    </g>
    <path id="use3044" style="color:#000000;filter:url(#filter3808);fill:#ffffbe" d="m18.11 77.362a4.1339 4.1339 0 1 1 -8.2675 0 4.1339 4.1339 0 1 1 8.2675 0z" transform="matrix(.35324 0 0 .35324 1172.1 1832.3)"/>
    <path id="use3046" style="color:#000000;filter:url(#filter3808);fill:#ffffbe" d="m18.11 77.362a4.1339 4.1339 0 1 1 -8.2675 0 4.1339 4.1339 0 1 1 8.2675 0z" transform="matrix(.35324 0 0 .35324 2027 6950.5)"/>
    <path id="use3048" style="color:#000000;filter:url(#filter3808);fill:#ffffbe" d="m18.11 77.362a4.1339 4.1339 0 1 1 -8.2675 0 4.1339 4.1339 0 1 1 8.2675 0z" transform="matrix(.35324 0 0 .35324 4166.2 19819)"/>
    <path id="use3050" style="color:#000000;filter:url(#filter3808);fill:#ffffbe" d="m18.11 77.362a4.1339 4.1339 0 1 1 -8.2675 0 4.1339 4.1339 0 1 1 8.2675 0z" transform="matrix(.35324 0 0 .35324 8659.4 46772)"/>
    <path id="use3052" style="color:#000000;filter:url(#filter3808);fill:#ffffbe" d="m18.11 77.362a4.1339 4.1339 0 1 1 -8.2675 0 4.1339 4.1339 0 1 1 8.2675 0z" transform="matrix(.35324 0 0 .35324 16993 96762)"/>
    <path id="use3054" style="color:#000000;filter:url(#filter3808);fill:#ffffbe" d="m18.11 77.362a4.1339 4.1339 0 1 1 -8.2675 0 4.1339 4.1339 0 1 1 8.2675 0z" transform="matrix(.35324 0 0 .35324 31143 1.8168e5)"/>
    <path id="use3056" style="color:#000000;filter:url(#filter3808);fill:#ffffbe" d="m18.11 77.362a4.1339 4.1339 0 1 1 -8.2675 0 4.1339 4.1339 0 1 1 8.2675 0z" transform="matrix(.35324 0 0 .35324 53649 3.1672e5)"/>
    <path id="use3058" style="color:#000000;filter:url(#filter3808);fill:#ffffbe" d="m18.11 77.362a4.1339 4.1339 0 1 1 -8.2675 0 4.1339 4.1339 0 1 1 8.2675 0z" transform="matrix(.35324 0 0 .35324 1531.7 170.57)"/>
    <path id="use3060" style="color:#000000;filter:url(#filter3808);fill:#ffffbe" d="m18.11 77.362a4.1339 4.1339 0 1 1 -8.2675 0 4.1339 4.1339 0 1 1 8.2675 0z" transform="matrix(.35324 0 0 .35324 1536.7 180.92)"/>
    <path id="use3062" style="color:#000000;filter:url(#filter3808);fill:#ffffbe" d="m18.11 77.362a4.1339 4.1339 0 1 1 -8.2675 0 4.1339 4.1339 0 1 1 8.2675 0z" transform="matrix(.35324 0 0 .35324 1575.2 432.34)"/>
    <path id="use3064" style="color:#000000;filter:url(#filter3808);fill:#ffffbe" d="m18.11 77.362a4.1339 4.1339 0 1 1 -8.2675 0 4.1339 4.1339 0 1 1 8.2675 0z" transform="matrix(.35324 0 0 .35324 1829 1943.9)"/>
    <path id="use3066" style="color:#000000;filter:url(#filter3808);fill:#ffffbe" d="m18.11 77.362a4.1339 4.1339 0 1 1 -8.2675 0 4.1339 4.1339 0 1 1 8.2675 0z" transform="matrix(.35324 0 0 .35324 2680 7061.6)"/>
    <path id="use3068" style="color:#000000;filter:url(#filter3808);fill:#ffffbe" d="m18.11 77.362a4.1339 4.1339 0 1 1 -8.2675 0 4.1339 4.1339 0 1 1 8.2675 0z" transform="matrix(.35324 0 0 .35324 4827.6 19926)"/>
    <path id="use3070" style="color:#000000;filter:url(#filter3808);fill:#ffffbe" d="m18.11 77.362a4.1339 4.1339 0 1 1 -8.2675 0 4.1339 4.1339 0 1 1 8.2675 0z" transform="matrix(.35324 0 0 .35324 9320.6 46886)"/>
    <path id="use3072" style="color:#000000;filter:url(#filter3808);fill:#ffffbe" d="m18.11 77.362a4.1339 4.1339 0 1 1 -8.2675 0 4.1339 4.1339 0 1 1 8.2675 0z" transform="matrix(.35324 0 0 .35324 17650 96874)"/>
    <path id="use3074" style="color:#000000;filter:url(#filter3808);fill:#ffffbe" d="m18.11 77.362a4.1339 4.1339 0 1 1 -8.2675 0 4.1339 4.1339 0 1 1 8.2675 0z" transform="matrix(.35324 0 0 .35324 31805 1.8179e5)"/>
    <path id="use3076" style="color:#000000;filter:url(#filter3808);fill:#ffffbe" d="m18.11 77.362a4.1339 4.1339 0 1 1 -8.2675 0 4.1339 4.1339 0 1 1 8.2675 0z" transform="matrix(.35324 0 0 .35324 54313 3.1683e5)"/>
    <path id="use3078" style="color:#000000;filter:url(#filter3808);fill:#ffffbe" d="m18.11 77.362a4.1339 4.1339 0 1 1 -8.2675 0 4.1339 4.1339 0 1 1 8.2675 0z" transform="matrix(.35324 0 0 .35324 2722.2 368.29)"/>
    <path id="use3080" style="color:#000000;filter:url(#filter3808);fill:#ffffbe" d="m18.11 77.362a4.1339 4.1339 0 1 1 -8.2675 0 4.1339 4.1339 0 1 1 8.2675 0z" transform="matrix(.35324 0 0 .35324 2720.4 380.71)"/>
    <path id="use3082" style="color:#000000;filter:url(#filter3808);fill:#ffffbe" d="m18.11 77.362a4.1339 4.1339 0 1 1 -8.2675 0 4.1339 4.1339 0 1 1 8.2675 0z" transform="matrix(.35324 0 0 .35324 2766.2 630.54)"/>
    <path id="use3084" style="color:#000000;filter:url(#filter3808);fill:#ffffbe" d="m18.11 77.362a4.1339 4.1339 0 1 1 -8.2675 0 4.1339 4.1339 0 1 1 8.2675 0z" transform="matrix(.35324 0 0 .35324 3014.8 2139.4)"/>
    <path id="use3086" style="color:#000000;filter:url(#filter3808);fill:#ffffbe" d="m18.11 77.362a4.1339 4.1339 0 1 1 -8.2675 0 4.1339 4.1339 0 1 1 8.2675 0z" transform="matrix(.35324 0 0 .35324 3870 7259.4)"/>
    <path id="use3088" style="color:#000000;filter:url(#filter3808);fill:#ffffbe" d="m18.11 77.362a4.1339 4.1339 0 1 1 -8.2675 0 4.1339 4.1339 0 1 1 8.2675 0z" transform="matrix(.35324 0 0 .35324 6013.8 20127)"/>
    <path id="use3090" style="color:#000000;filter:url(#filter3808);fill:#ffffbe" d="m18.11 77.362a4.1339 4.1339 0 1 1 -8.2675 0 4.1339 4.1339 0 1 1 8.2675 0z" transform="matrix(.35324 0 0 .35324 10511 47084)"/>
    <path id="use3092" style="color:#000000;filter:url(#filter3808);fill:#ffffbe" d="m18.11 77.362a4.1339 4.1339 0 1 1 -8.2675 0 4.1339 4.1339 0 1 1 8.2675 0z" transform="matrix(.35324 0 0 .35324 18839 97068)"/>
    <path id="use3094" style="color:#000000;filter:url(#filter3808);fill:#ffffbe" d="m18.11 77.362a4.1339 4.1339 0 1 1 -8.2675 0 4.1339 4.1339 0 1 1 8.2675 0z" transform="matrix(.35324 0 0 .35324 32994 1.8198e5)"/>
    <path id="use3096" style="color:#000000;filter:url(#filter3808);fill:#ffffbe" d="m18.11 77.362a4.1339 4.1339 0 1 1 -8.2675 0 4.1339 4.1339 0 1 1 8.2675 0z" transform="matrix(.35324 0 0 .35324 55498 3.1703e5)"/>
    <path id="use3098" style="color:#000000;filter:url(#filter3808);fill:#ffffbe" d="m18.11 77.362a4.1339 4.1339 0 1 1 -8.2675 0 4.1339 4.1339 0 1 1 8.2675 0z" transform="matrix(.35324 0 0 .35324 4631.6 686.68)"/>
    <path id="use3100" style="color:#000000;filter:url(#filter3808);fill:#ffffbe" d="m18.11 77.362a4.1339 4.1339 0 1 1 -8.2675 0 4.1339 4.1339 0 1 1 8.2675 0z" transform="matrix(.35324 0 0 .35324 4633.4 697.14)"/>
    <path id="use3102" style="color:#000000;filter:url(#filter3808);fill:#ffffbe" d="m18.11 77.362a4.1339 4.1339 0 1 1 -8.2675 0 4.1339 4.1339 0 1 1 8.2675 0z" transform="matrix(.35324 0 0 .35324 4675 948.19)"/>
    <path id="use3104" style="color:#000000;filter:url(#filter3808);fill:#ffffbe" d="m18.11 77.362a4.1339 4.1339 0 1 1 -8.2675 0 4.1339 4.1339 0 1 1 8.2675 0z" transform="matrix(.35324 0 0 .35324 4925.5 2457.4)"/>
    <path id="use3106" style="color:#000000;filter:url(#filter3808);fill:#ffffbe" d="m18.11 77.362a4.1339 4.1339 0 1 1 -8.2675 0 4.1339 4.1339 0 1 1 8.2675 0z" transform="matrix(.35324 0 0 .35324 5779.9 7575.9)"/>
    <path id="use3108" style="color:#000000;filter:url(#filter3808);fill:#ffffbe" d="m18.11 77.362a4.1339 4.1339 0 1 1 -8.2675 0 4.1339 4.1339 0 1 1 8.2675 0z" transform="matrix(.35324 0 0 .35324 7925.8 20445)"/>
    <path id="use3110" style="color:#000000;filter:url(#filter3808);fill:#ffffbe" d="m18.11 77.362a4.1339 4.1339 0 1 1 -8.2675 0 4.1339 4.1339 0 1 1 8.2675 0z" transform="matrix(.35324 0 0 .35324 12413 47403)"/>
    <path id="use3112" style="color:#000000;filter:url(#filter3808);fill:#ffffbe" d="m18.11 77.362a4.1339 4.1339 0 1 1 -8.2675 0 4.1339 4.1339 0 1 1 8.2675 0z" transform="matrix(.35324 0 0 .35324 20750 97387)"/>
    <path id="use3114" style="color:#000000;filter:url(#filter3808);fill:#ffffbe" d="m18.11 77.362a4.1339 4.1339 0 1 1 -8.2675 0 4.1339 4.1339 0 1 1 8.2675 0z" transform="matrix(.35324 0 0 .35324 34901 1.823e5)"/>
    <path id="use3116" style="color:#000000;filter:url(#filter3808);fill:#ffffbe" d="m18.11 77.362a4.1339 4.1339 0 1 1 -8.2675 0 4.1339 4.1339 0 1 1 8.2675 0z" transform="matrix(.35324 0 0 .35324 57407 3.1735e5)"/>
    <path id="use3118" style="color:#000000;filter:url(#filter3808);fill:#ffffbe" d="m18.11 77.362a4.1339 4.1339 0 1 1 -8.2675 0 4.1339 4.1339 0 1 1 8.2675 0z" transform="matrix(.35324 0 0 .35324 7465.9 1159.7)"/>
    <path id="use3120" style="color:#000000;filter:url(#filter3808);fill:#ffffbe" d="m18.11 77.362a4.1339 4.1339 0 1 1 -8.2675 0 4.1339 4.1339 0 1 1 8.2675 0z" transform="matrix(.35324 0 0 .35324 7463.7 1170.3)"/>
    <path id="use3122" style="color:#000000;filter:url(#filter3808);fill:#ffffbe" d="m18.11 77.362a4.1339 4.1339 0 1 1 -8.2675 0 4.1339 4.1339 0 1 1 8.2675 0z" transform="matrix(.35324 0 0 .35324 7504.6 1423.3)"/>
    <path id="use3124" style="color:#000000;filter:url(#filter3808);fill:#ffffbe" d="m18.11 77.362a4.1339 4.1339 0 1 1 -8.2675 0 4.1339 4.1339 0 1 1 8.2675 0z" transform="matrix(.35324 0 0 .35324 7757.3 2929.9)"/>
    <path id="use3126" style="color:#000000;filter:url(#filter3808);fill:#ffffbe" d="m18.11 77.362a4.1339 4.1339 0 1 1 -8.2675 0 4.1339 4.1339 0 1 1 8.2675 0z" transform="matrix(.35324 0 0 .35324 8615.2 8048.6)"/>
    <path id="use3128" style="color:#000000;filter:url(#filter3808);fill:#ffffbe" d="m18.11 77.362a4.1339 4.1339 0 1 1 -8.2675 0 4.1339 4.1339 0 1 1 8.2675 0z" transform="matrix(.35324 0 0 .35324 10760 20916)"/>
    <path id="use3130" style="color:#000000;filter:url(#filter3808);fill:#ffffbe" d="m18.11 77.362a4.1339 4.1339 0 1 1 -8.2675 0 4.1339 4.1339 0 1 1 8.2675 0z" transform="matrix(.35324 0 0 .35324 15251 47874)"/>
    <path id="use3132" style="color:#000000;filter:url(#filter3808);fill:#ffffbe" d="m18.11 77.362a4.1339 4.1339 0 1 1 -8.2675 0 4.1339 4.1339 0 1 1 8.2675 0z" transform="matrix(.35324 0 0 .35324 23582 97858)"/>
    <path id="use3134" style="color:#000000;filter:url(#filter3808);fill:#ffffbe" d="m18.11 77.362a4.1339 4.1339 0 1 1 -8.2675 0 4.1339 4.1339 0 1 1 8.2675 0z" transform="matrix(.35324 0 0 .35324 37731 1.8277e5)"/>
    <path id="use3136" style="color:#000000;filter:url(#filter3808);fill:#ffffbe" d="m18.11 77.362a4.1339 4.1339 0 1 1 -8.2675 0 4.1339 4.1339 0 1 1 8.2675 0z" transform="matrix(.35324 0 0 .35324 60238 3.1782e5)"/>
    <path id="use3138" style="color:#000000;filter:url(#filter3808);fill:#ffffbe" d="m18.11 77.362a4.1339 4.1339 0 1 1 -8.2675 0 4.1339 4.1339 0 1 1 8.2675 0z" transform="matrix(.35324 0 0 .35324 11437 1823.2)"/>
    <path id="use3140" style="color:#000000;filter:url(#filter3808);fill:#ffffbe" d="m18.11 77.362a4.1339 4.1339 0 1 1 -8.2675 0 4.1339 4.1339 0 1 1 8.2675 0z" transform="matrix(.35324 0 0 .35324 11439 1829)"/>
    <path id="use3142" style="color:#000000;filter:url(#filter3808);fill:#ffffbe" d="m18.11 77.362a4.1339 4.1339 0 1 1 -8.2675 0 4.1339 4.1339 0 1 1 8.2675 0z" transform="matrix(.35324 0 0 .35324 11483 2084.7)"/>
    <path id="use3144" style="color:#000000;filter:url(#filter3808);fill:#ffffbe" d="m18.11 77.362a4.1339 4.1339 0 1 1 -8.2675 0 4.1339 4.1339 0 1 1 8.2675 0z" transform="matrix(.35324 0 0 .35324 11734 3591.5)"/>
    <path id="use3146" style="color:#000000;filter:url(#filter3808);fill:#ffffbe" d="m18.11 77.362a4.1339 4.1339 0 1 1 -8.2675 0 4.1339 4.1339 0 1 1 8.2675 0z" transform="matrix(.35324 0 0 .35324 12586 8713.3)"/>
    <path id="use3148" style="color:#000000;filter:url(#filter3808);fill:#ffffbe" d="m18.11 77.362a4.1339 4.1339 0 1 1 -8.2675 0 4.1339 4.1339 0 1 1 8.2675 0z" transform="matrix(.35324 0 0 .35324 14728 21579)"/>
    <path id="use3150" style="color:#000000;filter:url(#filter3808);fill:#ffffbe" d="m18.11 77.362a4.1339 4.1339 0 1 1 -8.2675 0 4.1339 4.1339 0 1 1 8.2675 0z" transform="matrix(.35324 0 0 .35324 19222 48537)"/>
    <path id="use3152" style="color:#000000;filter:url(#filter3808);fill:#ffffbe" d="m18.11 77.362a4.1339 4.1339 0 1 1 -8.2675 0 4.1339 4.1339 0 1 1 8.2675 0z" transform="matrix(.35324 0 0 .35324 27552 98521)"/>
    <path id="use3154" style="color:#000000;filter:url(#filter3808);fill:#ffffbe" d="m18.11 77.362a4.1339 4.1339 0 1 1 -8.2675 0 4.1339 4.1339 0 1 1 8.2675 0z" transform="matrix(.35324 0 0 .35324 41709 1.8344e5)"/>
    <path id="use3156" style="color:#000000;filter:url(#filter3808);fill:#ffffbe" d="m18.11 77.362a4.1339 4.1339 0 1 1 -8.2675 0 4.1339 4.1339 0 1 1 8.2675 0z" transform="matrix(.35324 0 0 .35324 64211 3.1848e5)"/>
    <path id="use3158" style="color:#000000;filter:url(#filter3808);fill:#ffffbe" d="m18.11 77.362a4.1339 4.1339 0 1 1 -8.2675 0 4.1339 4.1339 0 1 1 8.2675 0z" transform="matrix(.35324 0 0 .35324 16777 2710.5)"/>
    <path id="use3160" style="color:#000000;filter:url(#filter3808);fill:#ffffbe" d="m18.11 77.362a4.1339 4.1339 0 1 1 -8.2675 0 4.1339 4.1339 0 1 1 8.2675 0z" transform="matrix(.35324 0 0 .35324 16780 2723.3)"/>
    <path id="use3162" style="color:#000000;filter:url(#filter3808);fill:#ffffbe" d="m18.11 77.362a4.1339 4.1339 0 1 1 -8.2675 0 4.1339 4.1339 0 1 1 8.2675 0z" transform="matrix(.35324 0 0 .35324 16823 2971.6)"/>
    <path id="use3164" style="color:#000000;filter:url(#filter3808);fill:#ffffbe" d="m18.11 77.362a4.1339 4.1339 0 1 1 -8.2675 0 4.1339 4.1339 0 1 1 8.2675 0z" transform="matrix(.35324 0 0 .35324 17073 4484.2)"/>
    <path id="use3166" style="color:#000000;filter:url(#filter3808);fill:#ffffbe" d="m18.11 77.362a4.1339 4.1339 0 1 1 -8.2675 0 4.1339 4.1339 0 1 1 8.2675 0z" transform="matrix(.35324 0 0 .35324 17931 9602.6)"/>
    <path id="use3168" style="color:#000000;filter:url(#filter3808);fill:#ffffbe" d="m18.11 77.362a4.1339 4.1339 0 1 1 -8.2675 0 4.1339 4.1339 0 1 1 8.2675 0z" transform="matrix(.35324 0 0 .35324 20069 22466)"/>
    <path id="use3170" style="color:#000000;filter:url(#filter3808);fill:#ffffbe" d="m18.11 77.362a4.1339 4.1339 0 1 1 -8.2675 0 4.1339 4.1339 0 1 1 8.2675 0z" transform="matrix(.35324 0 0 .35324 24564 49428)"/>
    <path id="use3172" style="color:#000000;filter:url(#filter3808);fill:#ffffbe" d="m18.11 77.362a4.1339 4.1339 0 1 1 -8.2675 0 4.1339 4.1339 0 1 1 8.2675 0z" transform="matrix(.35324 0 0 .35324 32894 99413)"/>
    <path id="use3174" style="color:#000000;filter:url(#filter3808);fill:#ffffbe" d="m18.11 77.362a4.1339 4.1339 0 1 1 -8.2675 0 4.1339 4.1339 0 1 1 8.2675 0z" transform="matrix(.35324 0 0 .35324 47045 1.8433e5)"/>
    <path id="use3176" style="color:#000000;filter:url(#filter3808);fill:#ffffbe" d="m18.11 77.362a4.1339 4.1339 0 1 1 -8.2675 0 4.1339 4.1339 0 1 1 8.2675 0z" transform="matrix(.35324 0 0 .35324 69556 3.1937e5)"/>
  </g>
</svg>